<svg xmlns="http://www.w3.org/2000/svg" aria-hidden="true" style="position:absolute;width:0;height:0;overflow:hidden">
  <defs>
    <symbol id="icon-logo" viewBox="0 0 233 32">
      <path
        d="M19.471 17.348H6.279v12.649h-6.28V0h21.368v5.24H6.278v6.822H19.47v5.286zM32.201 25.66c3.569 0 5.376-2.259 5.376-6.776s-1.807-6.731-5.376-6.731c-3.569 0-5.376 2.214-5.376 6.731s1.807 6.776 5.376 6.776zm0 4.924c-7.183 0-11.43-4.789-11.43-11.701 0-7.048 4.382-11.701 11.43-11.701 6.957 0 11.294 4.608 11.294 11.701 0 7.048-4.382 11.701-11.294 11.701zM59.716 21.956h5.918c-.632 5.15-4.834 8.629-10.21 8.629-6.054 0-10.21-4.021-10.21-11.972s4.156-11.43 10.391-11.43c5.783 0 9.713 3.298 10.074 8.538h-5.918c-.316-2.304-1.988-3.659-4.201-3.659-2.485 0-4.518 1.581-4.518 6.415s2.033 7.183 4.337 7.183 4.111-1.31 4.337-3.704zM87.384 29.997h-5.557V26.88c-1.536 2.53-3.84 3.704-6.912 3.704-4.427 0-7.545-3.298-7.545-8.177V7.77h5.873v13.734c0 2.801 1.265 4.156 3.749 4.156 2.982 0 4.563-2.123 4.563-5.06V7.77h5.828v22.227zM108.978 14.502h-5.647c-.316-2.168-1.491-2.936-4.156-2.936-2.214 0-3.479.542-3.479 1.852s1.22 1.852 3.614 2.53c2.53.723 4.924 1.22 6.641 1.897 2.349.949 3.659 2.485 3.659 5.376 0 4.608-3.388 7.364-9.713 7.364-6.822 0-10.616-3.208-10.707-7.725h6.053c0 2.078 1.762 3.298 4.608 3.298 2.078 0 3.93-.632 3.93-2.304 0-1.581-1.672-2.078-3.569-2.53-3.75-.904-5.828-1.536-7.409-2.53-2.078-1.31-2.801-3.027-2.801-5.015 0-3.75 2.575-6.596 9.352-6.596 6.415 0 9.306 2.53 9.623 7.319zM117.412 29.997h-6.28v-6.099h6.28v6.099zM139.03 17.348h-13.192v12.649h-6.28V0h21.368v5.24h-15.089v6.822h13.192v5.286zM147.494 29.997h-5.873V7.77h5.512v2.665c1.943-2.982 4.201-3.253 6.596-3.253h.768v6.008a9.912 9.912 0 0 0-1.626-.136c-3.614 0-5.376 1.807-5.376 5.376v11.565zM168.495 21.549l.045-2.44c-.587.587-1.626.904-3.795 1.31-3.343.632-4.427 1.581-4.427 3.479 0 1.672.994 2.485 2.846 2.485 3.027 0 5.286-2.214 5.331-4.834zm5.918 8.448h-5.466c-.181-.542-.316-1.31-.361-1.988-1.4 1.536-3.75 2.575-6.731 2.575-5.06 0-7.409-2.485-7.409-6.099 0-6.415 4.292-7.138 10.21-7.951 2.936-.407 3.75-.994 3.75-2.53 0-1.446-1.446-2.304-3.75-2.304-2.665 0-3.75 1.31-4.021 3.298h-5.466c.09-4.608 2.62-7.816 9.758-7.816 7.048 0 9.487 3.162 9.487 8.764v14.05zM208.808 29.997h-5.737V16.534c0-2.665-1.4-4.563-3.479-4.563-2.168 0-3.75 2.033-3.75 4.744v13.282h-5.873V16.625c0-3.569-.949-4.472-3.524-4.472-2.349 0-3.569 1.446-3.569 4.337v13.508h-5.873V7.771h5.512v3.253c1.491-2.936 3.569-3.84 6.506-3.84 3.027 0 4.472.949 6.189 3.524 1.22-2.44 3.208-3.524 6.008-3.524 4.472 0 7.59 3.253 7.59 7.409v15.405zM216.619 16.715h9.08c-.09-3.298-2.259-4.879-4.563-4.879-2.349 0-4.292 1.807-4.518 4.879zm15.134 3.705h-15.315c.181 3.343 2.078 5.512 4.969 5.512 1.897 0 3.569-.949 3.976-2.485h6.054c-1.355 4.563-5.015 7.138-9.758 7.138-7.409 0-11.113-4.066-11.113-12.107 0-6.867 3.93-11.294 10.752-11.294s10.436 4.427 10.436 13.237z" />
    </symbol>
    <symbol id="icon-close" viewBox="0 0 32 32">
      <path
        d="M8 25.5c-.4 0-.8-.1-1.1-.4-.6-.6-.6-1.5 0-2.1l16-16c.6-.6 1.5-.6 2.1 0s.6 1.5 0 2.1l-16 16c-.2.3-.6.4-1 .4z" />
      <path
        d="M24 25.5c-.4 0-.8-.1-1.1-.4l-16-16c-.6-.6-.6-1.5 0-2.1S8.4 6.4 9 7l16 16c.6.6.6 1.5 0 2.1-.2.3-.6.4-1 .4z" />
    </symbol>
    <symbol id="icon-hero-arrow" viewBox="0 0 58 32">
      <path d="M40 2.144l17.6 13.856-17.6 13.856v-11.456h-40v-4.8h40v-11.456z" />
    </symbol>
    <symbol id="icon-narrow-up-arrow" viewBox="0 0 32 32">
      <path
        d="M8 25.12c-.32 0-.48-.16-.8-.32-.48-.48-.48-1.12 0-1.44l16-16c.48-.48 1.12-.48 1.44 0s.48 1.12 0 1.44l-16 16c-.16.16-.32.32-.64.32z" />
      <path
        d="M24 19.68c-.64 0-1.12-.48-1.12-1.12v-9.6h-9.6c-.48 0-.96-.32-.96-.96s.48-.96.96-.96H24c.64 0 1.12.48 1.12.96v10.72c0 .48-.48.96-1.12.96z" />
    </symbol>
    <symbol id="icon-prev-arrow" viewBox="0 0 58 32">
      <path d="M17.6 29.76l-17.6-13.76 17.6-13.76v11.52h40v4.8h-40v11.2z" />
    </symbol>
    <symbol id="icon-heart" viewBox="0 0 18 18">
      <path
        d="M15.6301 3.45753C15.247 3.07428 14.7922 2.77026 14.2916 2.56284C13.791 2.35542 13.2545 2.24866 12.7126 2.24866C12.1707 2.24866 11.6342 2.35542 11.1336 2.56284C10.633 2.77026 10.1782 3.07428 9.79509 3.45753L9.00009 4.25253L8.20509 3.45753C7.43132 2.68376 6.38186 2.24906 5.28759 2.24906C4.19331 2.24906 3.14386 2.68376 2.37009 3.45753C1.59632 4.2313 1.16162 5.28075 1.16162 6.37503C1.16162 7.4693 1.59632 8.51876 2.37009 9.29253L3.16509 10.0875L9.00009 15.9225L14.8351 10.0875L15.6301 9.29253C16.0133 8.90946 16.3174 8.45464 16.5248 7.95404C16.7322 7.45345 16.839 6.91689 16.839 6.37503C16.839 5.83316 16.7322 5.2966 16.5248 4.79601C16.3174 4.29542 16.0133 3.84059 15.6301 3.45753Z"
        fill="#3470FF" stroke="#3470FF" stroke-linecap="round" stroke-linejoin="round" />
    </symbol>
  </defs>
</svg>